<svg viewBox="0 0 22 22" xmlns:xlink="http://www.w3.org/1999/xlink" xmlns="http://www.w3.org/2000/svg" width="22" height="22" fill="none">
            <path fill="#FFFFFF" d="M4.458 19.142c.06.67.61 1.158 1.28 1.158H16.26c.67 0 1.22-.508 1.28-1.158L18.72 6.79H3.28l1.178 12.352ZM18.72 2.93h-5.14v-.65c0-.711-.569-1.28-1.28-1.28H9.72c-.711 0-1.28.569-1.28 1.28v.65H3.28C2.569 2.93 2 3.499 2 4.21c0 .711.569 1.28 1.28 1.28h15.44c.711 0 1.28-.569 1.28-1.28 0-.711-.569-1.28-1.28-1.28Z"></path>
          </svg>