<svg width="22" height="22" viewBox="0 0 22 22" fill="none" xmlns="http://www.w3.org/2000/svg">
<path d="M19.4537 11.3199C21.5154 9.18417 21.5154 5.71632 19.4537 3.60177C17.3919 1.46608 14.0441 1.46608 11.9824 3.60177L10.9821 4.65904L9.98188 3.62292C7.92013 1.46608 4.57234 1.46608 2.531 3.60177C1.53075 4.6379 1 6.01235 1 7.47139C1 8.93043 1.55116 10.3049 2.531 11.341L10.9821 20.0952L19.4537 11.3199ZM2.30646 7.47139C2.30646 6.37183 2.71472 5.35684 3.47002 4.59561C4.24573 3.79208 5.24598 3.39031 6.24624 3.39031C7.24649 3.39031 8.24675 3.79208 9.02246 4.59561L10.9821 6.60443L12.9418 4.57446C14.4728 2.98855 16.9837 2.98855 18.4943 4.57446C19.2291 5.3357 19.6578 6.35068 19.6578 7.45025C19.6578 8.54981 19.2496 9.56479 18.4943 10.326L10.9821 18.1287L3.47002 10.3472C2.73514 9.56479 2.30646 8.54981 2.30646 7.47139Z" fill="black"/>
</svg>
